<svg xmlns="http://www.w3.org/2000/svg" width="64" height="64" viewBox="0 0 64 64" fill="none">
	<defs>
		<linearGradient id="felt" x1="8" y1="6" x2="56" y2="58" gradientUnits="userSpaceOnUse">
			<stop offset="0" stop-color="#115343" />
			<stop offset="1" stop-color="#031714" />
		</linearGradient>
		<linearGradient id="cardGlow" x1="20" y1="18" x2="49" y2="46" gradientUnits="userSpaceOnUse">
			<stop offset="0" stop-color="#FFF9E8" />
			<stop offset="1" stop-color="#E9D8AA" />
		</linearGradient>
		<linearGradient id="copper" x1="22" y1="14" x2="42" y2="50" gradientUnits="userSpaceOnUse">
			<stop offset="0" stop-color="#E6B170" />
			<stop offset="1" stop-color="#B97335" />
		</linearGradient>
		<filter id="shadow" x="13" y="10" width="40" height="46" color-interpolation-filters="sRGB" filterUnits="userSpaceOnUse">
			<feFlood flood-opacity="0" result="BackgroundImageFix"/>
			<feColorMatrix in="SourceAlpha" values="0 0 0 0 0 0 0 0 0 0 0 0 0 0 0 0 0 0 127 0" result="hardAlpha"/>
			<feOffset dy="3"/>
			<feGaussianBlur stdDeviation="2.5"/>
			<feComposite in2="hardAlpha" operator="out"/>
			<feColorMatrix values="0 0 0 0 0 0 0 0 0 0.0352941 0 0 0 0 0.0313726 0 0 0 0.35 0"/>
			<feBlend in2="BackgroundImageFix" result="effect1_dropShadow_1_1"/>
			<feBlend in="SourceGraphic" in2="effect1_dropShadow_1_1" result="shape"/>
		</filter>
	</defs>

	<rect x="4" y="4" width="56" height="56" rx="18" fill="url(#felt)"/>
	<rect x="5.5" y="5.5" width="53" height="53" rx="16.5" stroke="#D1AD72" stroke-opacity="0.65"/>
	<circle cx="16" cy="16" r="7" fill="#D18D4D" fill-opacity="0.16"/>
	<circle cx="50" cy="46" r="10" fill="#2F9467" fill-opacity="0.2"/>

	<g filter="url(#shadow)" transform="rotate(-8 32 32)">
		<rect x="20" y="15" width="24" height="34" rx="5" fill="url(#cardGlow)"/>
		<rect x="20.75" y="15.75" width="22.5" height="32.5" rx="4.25" stroke="#D1AD72" stroke-opacity="0.7" stroke-width="1.5"/>
		<text x="24.2" y="28.5" fill="#B4495F" font-family="Georgia, 'Times New Roman', serif" font-size="9" font-weight="700">A</text>
		<path d="M24.2 33.4C24.2 31.9 25.4 30.7 26.9 30.7C27.8 30.7 28.7 31.2 29.1 31.9C29.5 31.2 30.4 30.7 31.3 30.7C32.8 30.7 34 31.9 34 33.4C34 36.1 31.6 37.5 29.1 39.6C26.6 37.5 24.2 36.1 24.2 33.4Z" fill="#B4495F"/>
		<text x="23.1" y="44" fill="url(#copper)" font-family="Georgia, 'Times New Roman', serif" font-size="18" font-weight="700">21</text>
	</g>
</svg>